<?xml version="1.0" encoding="UTF-8"?>
<svg id="Layer_1" data-name="Layer 1" xmlns="http://www.w3.org/2000/svg" xmlns:xlink="http://www.w3.org/1999/xlink" viewBox="0 0 1500 1509.85">
  <defs>
    <style>
      .cls-1 {
        fill: url(#linear-gradient-2);
      }

      .cls-2 {
        fill: url(#linear-gradient-4);
      }

      .cls-3 {
        fill: url(#linear-gradient-3);
      }

      .cls-4 {
        fill: url(#linear-gradient-5);
      }

      .cls-5 {
        fill: #f1f2f2;
      }

      .cls-6 {
        fill: url(#linear-gradient-8);
      }

      .cls-7 {
        fill: url(#linear-gradient-7);
      }

      .cls-8 {
        filter: url(#drop-shadow-23);
      }

      .cls-9 {
        fill: url(#linear-gradient-6);
      }

      .cls-10 {
        fill: url(#linear-gradient);
      }
    </style>
    <filter id="drop-shadow-23" x="141.58" y="602.63" width="1221.12" height="308.64" filterUnits="userSpaceOnUse">
      <feOffset dx="2" dy="2"/>
      <feGaussianBlur result="blur" stdDeviation="2"/>
      <feFlood flood-color="#0f0f0f" flood-opacity=".5"/>
      <feComposite in2="blur" operator="in"/>
      <feComposite in="SourceGraphic"/>
    </filter>
    <linearGradient id="linear-gradient" x1="602.08" y1="789.16" x2="829.42" y2="789.16" gradientUnits="userSpaceOnUse">
      <stop offset=".11" stop-color="#43006c"/>
      <stop offset=".94" stop-color="#9d00ee"/>
    </linearGradient>
    <linearGradient id="linear-gradient-2" x1="1073.41" y1="789.55" x2="1310.82" y2="789.55" xlink:href="#linear-gradient"/>
    <linearGradient id="linear-gradient-3" x1="825.22" y1="755.56" x2="970.66" y2="755.56" xlink:href="#linear-gradient"/>
    <linearGradient id="linear-gradient-4" x1="928.12" y1="789.54" x2="1049.59" y2="789.54" xlink:href="#linear-gradient"/>
    <linearGradient id="linear-gradient-5" x1="1001.29" y1="653.85" x2="1072.47" y2="653.85" xlink:href="#linear-gradient"/>
    <linearGradient id="linear-gradient-6" x1="220.68" y1="757.46" x2="603.57" y2="757.46" xlink:href="#linear-gradient"/>
    <linearGradient id="linear-gradient-7" x1="172.85" y1="698.78" x2="359.05" y2="698.78" xlink:href="#linear-gradient"/>
    <linearGradient id="linear-gradient-8" x1="212.2" y1="743.55" x2="342.33" y2="743.55" xlink:href="#linear-gradient"/>
  </defs>
  <g class="cls-8">
    <path class="cls-5" d="M523.1,694.87c-9.55-6.2-20.27-9.71-31.92-9.73l-53.74-.08-15.52,44.32c1.37-.59,2.73-1.14,4.12-1.67,2.63-9.89,7.83-19.72,16.3-24.29,16.54-8.89,37.04-5.96,46.54,12.6,8.38,1.43,18.62-1.28,20.66,7.53.63,2.81-.45,5.65-2.26,8.04-2.92,3.79-7.51,4.06-12.3,6.26,14.85,10.56,24.21,26.37,27.92,43.46,17.28-28.78,24.92-66.31.2-86.44Z"/>
    <path class="cls-5" d="M756.35,738.9c-28.7-8.53-67.96-1.06-80.3,29.88l95.92-.02c3.83-13.79-2.83-26.05-15.62-29.86Z"/>
    <path class="cls-5" d="M1238,680.98l-72.43,89.93-12.09-90.09-75.04.2c3.47-4.87,6.18-10.48,7.87-16.72.41-1.49,1.1-3.28,1.9-5.34,1.67-4.26,3.73-9.57,4.59-16.03,1.16-8.95-1.02-17.46-6.2-23.99-5.1-6.42-12.73-10.42-21.48-11.3-6.57-.63-13.48-.96-20.52-.96-6.06,0-12.42.24-18.91.71-11.81.88-22.68,7.16-29.92,16.95l4-11.4-103,.14-46.83,133.51c-2.73-29.57-21.44-53.27-50.72-63.27-16.32-5.57-33.94-8.26-53.85-8.26-6.28,0-12.73.24-19.68.8-36.67,2.81-67.73,15.3-92.27,37.1-3.06,2.73-5.98,5.59-8.77,8.53.14-5.53-.04-11.26-.73-17.15-3.94-33.78-22.27-60.33-51.6-74.75-20.52-10.1-42.55-15.24-65.45-15.26l-236.29-.22c-30.9,0-58.25,19.68-68.08,48.97l-.92,2.75c-21.56,3.77-39.71,19.01-46.85,40.3l-9.02,26.9,57.9-.04c-4.06,5.24-7.34,11.2-9.55,17.72l-9.14,26.92,134.82.18-42.73,123.05,166.13-.43c39.28-.08,76.2-12.77,109.73-37.69l.35-.24.31-.27c11.01-8.89,20.78-18.85,29.37-29.74,3.24,29.84,23.88,54.09,54.8,63.29,16.66,4.98,34.02,7.38,53.01,7.38,11.61,0,23.62-.9,36.73-2.75,33.53-4.71,62.6-19.95,83.85-43.57l-14.26,40.65,103.84.73.04-.14,102.27-.12,55.82-160.62,27.02,160.84,87.21-.24,60.9-72.67,120.13-143.93-116.28-.37ZM174.07,712.61c5.47-16.32,20.72-27.31,37.92-27.33l148.1-.22-8.93,27.39-177.08.16ZM213.39,757.28c5.61-16.54,21.13-27.64,38.59-27.62l91.37.14-8.77,27.64-121.19-.16ZM540.73,846.37c-28.98,21.54-61.68,33.59-97.64,33.69l-137.37.35,73.1-210.51-156.99-.35c7.04-20.97,26.68-35.1,48.81-35.06l236.21.22c20.13.02,39.24,4.69,56.48,13.16,23.66,11.65,37.32,33,40.34,58.82,1.94,16.5-.61,31.96-4.85,47.91-9.61,36.16-28.29,67.67-58.09,91.76ZM663.74,803.5c-6.38,14.15.92,30.04,16.28,34.71,23.97,7.3,52.4,3.75,71.59-13.2,18.48-1.94,36.55,2.02,56.13,2.88-19.09,30.21-49.26,47.56-83.11,52.34-27.58,3.88-54.64,3.9-81.09-3.98-24.45-7.28-41.32-27.25-40.67-53.54.9-36.24,17.05-70.45,44.12-94.49,22.54-20.01,50.46-29.74,80.3-32.02,22.48-1.73,44.36-.73,65.37,6.43,24.09,8.22,38.26,28.74,37.24,54.23-.65,16.01-4.41,31.12-10.55,46.56l-155.6.08ZM886.32,877.74l-60.58-.43,85.5-243.85,59.78-.08-52.72,150.56-31.98,93.8ZM988.66,877.6l-60.15.08,61.07-176.34,60.29.2-61.21,176.06ZM1072.57,640.25c-.88,6.71-4.22,12.32-5.96,18.72-3.18,11.83-12.14,21.07-25.94,21.48-11.99.35-31.21,1.92-36.9-5.02-5.92-7.22,1.77-25.96,5.89-34.78,3.22-6.83,9.69-12.34,17.54-12.93,12.07-.88,24.09-.94,35.92.22,6.93.67,10.34,5.55,9.44,12.3ZM1218.51,812.23l-54.8,65.35-60.41.18-29.64-176.32,62-.18,16.03,119.42,96.06-119.28,63.06.2-92.31,110.63Z"/>
    <path class="cls-5" d="M491.53,789.81l-22.58-11.48c.04-2.83.57-5.1,1.39-7.59,4.75-1.22,13.54,2.32,14.26-4.2l1.53-13.89c1.61-.33,5.1-.16,5.89-1.94-1.2-5.53-5.08-9.61-6.87-14.5-7.2.55-13.18,1.33-20.13.41l33.74-7.2c1.67-.35,3.71-1.8,4.12-3.53.18-.75-.37-1.53-1.12-1.71-5.49-1.24-11.67-.22-17.09-1.18-2.08-3.77-3.59-7.59-6.67-10.54-8.91-8.59-22.35-9.04-32.47-2.71-10.4,6.51-13.95,18.74-10.99,30.92,4.3,17.76,9.97,7.2,5.06,31.74-8.06,3.53-27.88,5.69-36.37,10.46l-16.26,46.44h56.27c21.68,0,42.46-7.16,58.64-21.82t.02-.04l-.02-2.04c-.08-6.87-4.59-12.65-10.34-15.58Z"/>
  </g>
  <g>
    <path class="cls-10" d="M818.81,803.47c6.14-15.46,9.9-30.58,10.55-46.61,1.03-25.52-13.16-46.06-37.27-54.28-21.03-7.17-42.94-8.17-65.44-6.44-29.86,2.3-57.83,12.02-80.4,32.06-27.09,24.06-43.26,58.32-44.15,94.59-.65,26.32,16.22,46.32,40.72,53.6,26.48,7.88,53.57,7.87,81.17,3.98,33.89-4.77,64.09-22.15,83.21-52.4-19.61-.86-37.71-4.82-56.21-2.87-19.21,16.97-47.67,20.51-71.65,13.21-15.39-4.68-22.69-20.58-16.3-34.75l155.77-.1ZM755.76,738.89c12.81,3.81,19.5,16.1,15.64,29.89h-96.01c12.34-30.95,51.65-38.43,80.38-29.89Z"/>
    <polygon class="cls-1" points="1247.69 701.35 1151.52 820.75 1135.47 701.21 1073.41 701.38 1103.06 877.89 1163.56 877.72 1218.41 812.29 1310.82 701.55 1247.69 701.35"/>
    <polygon class="cls-3" points="910.82 633.32 825.22 877.46 885.86 877.88 917.87 783.98 970.66 633.24 910.82 633.32"/>
    <polygon class="cls-2" points="928.12 877.81 988.33 877.74 1049.59 701.48 989.23 701.28 928.12 877.81"/>
    <path class="cls-4" d="M1062.87,627.81c-11.84-1.16-23.86-1.1-35.96-.21-7.85.58-14.33,6.09-17.55,12.94-4.14,8.81-11.83,27.59-5.9,34.81,5.7,6.95,24.94,5.37,36.94,5.02,13.82-.41,22.78-9.66,25.98-21.49,1.74-6.43,5.08-12.04,5.96-18.74.89-6.75-2.53-11.64-9.46-12.32Z"/>
    <path class="cls-9" d="M602.91,706.65c-3.02-25.85-16.71-47.23-40.39-58.88-17.25-8.48-36.39-13.15-56.53-13.17l-236.47-.23c-22.14-.02-41.81,14.12-48.85,35.11h0l157.14.35-73.16,210.73,137.52-.35c35.99-.09,68.72-12.16,97.73-33.72,29.83-24.12,48.55-55.67,58.16-91.86,4.24-15.98,6.79-31.44,4.86-47.97ZM501.01,807.54c-16.2,14.68-37.01,21.85-58.71,21.85h-56.34s16.27-46.5,16.27-46.5c8.49-4.78,28.35-6.94,36.41-10.47,4.92-24.56-.74-14-5.07-31.79-2.96-12.19.6-24.43,11.01-30.94,10.12-6.33,23.59-5.88,32.51,2.72,3.07,2.96,4.58,6.77,6.68,10.54,5.42.96,11.62-.04,17.1,1.2.76.17,1.31.95,1.13,1.71-.41,1.74-2.45,3.18-4.12,3.53l-33.78,7.21c6.96.92,12.94.14,20.15-.41,1.8,4.89,5.67,8.98,6.89,14.52-.81,1.77-4.3,1.61-5.9,1.94l-1.54,13.9c-.72,6.52-9.51,2.97-14.27,4.19-.82,2.49-1.35,4.77-1.39,7.61l22.6,11.5c5.75,2.93,10.26,8.71,10.35,15.6l.03,2.04s-.01.03-.02.04ZM522.05,781.34c-3.71-17.11-13.08-32.93-27.95-43.5,4.79-2.2,9.4-2.47,12.31-6.27,1.82-2.39,2.91-5.23,2.27-8.04-2.03-8.84-12.29-6.11-20.68-7.55-9.51-18.56-30.04-21.51-46.58-12.6-8.47,4.56-13.69,14.4-16.31,24.31-1.41.52-2.77,1.08-4.13,1.67l15.53-44.37,53.81.08c11.65.02,22.39,3.55,31.96,9.74,24.73,20.16,17.07,57.73-.22,86.54Z"/>
    <path class="cls-7" d="M359.05,684.99l-148.24.22c-17.22.03-32.49,11.04-37.96,27.36l177.28-.16,8.93-27.43Z"/>
    <path class="cls-6" d="M342.33,729.78l-91.48-.14c-17.48-.03-33.03,11.1-38.65,27.65h0l121.33.17,8.79-27.68Z"/>
  </g>
</svg>